<svg width="903" height="71" viewBox="0 0 903 71" fill="none" xmlns="http://www.w3.org/2000/svg">
<path d="M13.207 37.6328V55H0.867188V3.8125H21.293C25.207 3.8125 28.6641 4.53906 31.6641 5.99219C34.6875 7.42188 37.0195 9.47266 38.6602 12.1445C40.3242 14.793 41.1562 17.8047 41.1562 21.1797C41.1562 26.1719 39.3633 30.168 35.7773 33.168C32.2148 36.1445 27.3164 37.6328 21.082 37.6328H13.207ZM13.207 28.1055H21.293C23.6836 28.1055 25.5 27.5078 26.7422 26.3125C28.0078 25.1172 28.6406 23.4297 28.6406 21.25C28.6406 18.8594 27.9961 16.9492 26.707 15.5195C25.418 14.0898 23.6602 13.3633 21.4336 13.3398H13.207V28.1055ZM70.2305 27.6836L66.3281 27.4023C62.6016 27.4023 60.2109 28.5742 59.1562 30.918V55H47.3086V16.9609H58.418L58.8047 21.8477C60.7969 18.1211 63.5742 16.2578 67.1367 16.2578C68.4023 16.2578 69.5039 16.3984 70.4414 16.6797L70.2305 27.6836ZM71.7422 35.6289C71.7422 31.832 72.4805 28.457 73.957 25.5039C75.4336 22.5273 77.5547 20.2422 80.3203 18.6484C83.0859 17.0547 86.332 16.2578 90.0586 16.2578C95.7539 16.2578 100.242 18.0273 103.523 21.5664C106.805 25.082 108.445 29.875 108.445 35.9453V36.3672C108.445 42.2969 106.793 47.0078 103.488 50.5C100.207 53.9688 95.7539 55.7031 90.1289 55.7031C84.7148 55.7031 80.3672 54.0859 77.0859 50.8516C73.8047 47.5938 72.0352 43.1875 71.7773 37.6328L71.7422 35.6289ZM83.5898 36.3672C83.5898 39.8828 84.1406 42.4609 85.2422 44.1016C86.3438 45.7422 87.9727 46.5625 90.1289 46.5625C94.3477 46.5625 96.5039 43.3164 96.5977 36.8242V35.6289C96.5977 28.8086 94.418 25.3984 90.0586 25.3984C86.0977 25.3984 83.9531 28.3398 83.625 34.2227L83.5898 36.3672ZM112.172 35.6992C112.172 29.6758 113.473 24.9297 116.074 21.4609C118.676 17.9922 122.309 16.2578 126.973 16.2578C130.371 16.2578 133.23 17.5938 135.551 20.2656V1H147.434V55H136.781L136.184 50.9219C133.746 54.1094 130.652 55.7031 126.902 55.7031C122.379 55.7031 118.793 53.9688 116.145 50.5C113.496 47.0312 112.172 42.0977 112.172 35.6992ZM124.02 36.4375C124.02 43.1875 125.988 46.5625 129.926 46.5625C132.551 46.5625 134.426 45.4609 135.551 43.2578V28.7734C134.473 26.5234 132.621 25.3984 129.996 25.3984C126.34 25.3984 124.359 28.3516 124.055 34.2578L124.02 36.4375ZM176.824 50.8867C174.316 54.0977 170.93 55.7031 166.664 55.7031C162.492 55.7031 159.328 54.4961 157.172 52.082C155.039 49.6445 153.973 46.1523 153.973 41.6055V16.9609H165.82V41.6758C165.82 44.9336 167.402 46.5625 170.566 46.5625C173.285 46.5625 175.219 45.5898 176.367 43.6445V16.9609H188.285V55H177.176L176.824 50.8867ZM210.891 46.5625C212.555 46.5625 213.844 46.1172 214.758 45.2266C215.672 44.3125 216.117 43.0469 216.094 41.4297H227.203C227.203 45.6016 225.703 49.0234 222.703 51.6953C219.727 54.3672 215.883 55.7031 211.172 55.7031C205.641 55.7031 201.281 53.9688 198.094 50.5C194.906 47.0312 193.312 42.2266 193.312 36.0859V35.5938C193.312 31.75 194.016 28.3633 195.422 25.4336C196.852 22.4805 198.902 20.2188 201.574 18.6484C204.246 17.0547 207.41 16.2578 211.066 16.2578C216.012 16.2578 219.938 17.6289 222.844 20.3711C225.75 23.1133 227.203 26.8281 227.203 31.5156H216.094C216.094 29.5469 215.613 28.0352 214.652 26.9805C213.691 25.9258 212.402 25.3984 210.785 25.3984C207.715 25.3984 205.922 27.3555 205.406 31.2695C205.242 32.5117 205.16 34.2227 205.16 36.4023C205.16 40.2227 205.617 42.8711 206.531 44.3477C207.445 45.8242 208.898 46.5625 210.891 46.5625ZM246.012 7.50391V16.9609H252.27V25.1875H246.012V42.5898C246.012 44.0195 246.27 45.0156 246.785 45.5781C247.301 46.1406 248.32 46.4219 249.844 46.4219C251.016 46.4219 252 46.3516 252.797 46.2109V54.6836C250.664 55.3633 248.438 55.7031 246.117 55.7031C242.039 55.7031 239.027 54.7422 237.082 52.8203C235.137 50.8984 234.164 47.9805 234.164 44.0664V25.1875H229.312V16.9609H234.164V7.50391H246.012ZM307.676 34.6094H287.777V55H275.438V3.8125H309.68V13.3398H287.777V25.1172H307.676V34.6094ZM331.898 55.7031C326.062 55.7031 321.34 53.9688 317.73 50.5C314.121 47.0078 312.316 42.4727 312.316 36.8945V35.9102C312.316 32.0195 313.031 28.5859 314.461 25.6094C315.914 22.6328 318.023 20.3359 320.789 18.7188C323.555 17.0781 326.836 16.2578 330.633 16.2578C335.977 16.2578 340.195 17.9219 343.289 21.25C346.383 24.5547 347.93 29.1719 347.93 35.1016V39.707H324.375C324.797 41.8398 325.723 43.5156 327.152 44.7344C328.582 45.9531 330.434 46.5625 332.707 46.5625C336.457 46.5625 339.387 45.25 341.496 42.625L346.91 49.0234C345.434 51.0625 343.336 52.6914 340.617 53.9102C337.922 55.1055 335.016 55.7031 331.898 55.7031ZM330.562 25.3984C327.094 25.3984 325.031 27.6953 324.375 32.2891H336.328V31.375C336.375 29.4766 335.895 28.0117 334.887 26.9805C333.879 25.9258 332.438 25.3984 330.562 25.3984ZM374.156 55C373.734 54.2266 373.359 53.0898 373.031 51.5898C370.852 54.332 367.805 55.7031 363.891 55.7031C360.305 55.7031 357.258 54.625 354.75 52.4688C352.242 50.2891 350.988 47.5586 350.988 44.2773C350.988 40.1523 352.512 37.0352 355.559 34.9258C358.605 32.8164 363.035 31.7617 368.848 31.7617H372.504V29.7578C372.504 26.2656 370.992 24.5195 367.969 24.5195C365.156 24.5195 363.75 25.9023 363.75 28.668H351.902C351.902 24.9883 353.461 22 356.578 19.7031C359.719 17.4063 363.715 16.2578 368.566 16.2578C373.418 16.2578 377.25 17.4414 380.062 19.8086C382.875 22.1758 384.316 25.4219 384.387 29.5469V46.3867C384.434 49.8789 384.973 52.5508 386.004 54.4023V55H374.156ZM366.738 47.2656C368.215 47.2656 369.434 46.9492 370.395 46.3164C371.379 45.6836 372.082 44.9688 372.504 44.1719V38.0898H369.059C364.934 38.0898 362.871 39.9414 362.871 43.6445C362.871 44.7227 363.234 45.6016 363.961 46.2812C364.688 46.9375 365.613 47.2656 366.738 47.2656ZM404.777 7.50391V16.9609H411.035V25.1875H404.777V42.5898C404.777 44.0195 405.035 45.0156 405.551 45.5781C406.066 46.1406 407.086 46.4219 408.609 46.4219C409.781 46.4219 410.766 46.3516 411.562 46.2109V54.6836C409.43 55.3633 407.203 55.7031 404.883 55.7031C400.805 55.7031 397.793 54.7422 395.848 52.8203C393.902 50.8984 392.93 47.9805 392.93 44.0664V25.1875H388.078V16.9609H392.93V7.50391H404.777ZM438.387 50.8867C435.879 54.0977 432.492 55.7031 428.227 55.7031C424.055 55.7031 420.891 54.4961 418.734 52.082C416.602 49.6445 415.535 46.1523 415.535 41.6055V16.9609H427.383V41.6758C427.383 44.9336 428.965 46.5625 432.129 46.5625C434.848 46.5625 436.781 45.5898 437.93 43.6445V16.9609H449.848V55H438.738L438.387 50.8867ZM479.379 27.6836L475.477 27.4023C471.75 27.4023 469.359 28.5742 468.305 30.918V55H456.457V16.9609H467.566L467.953 21.8477C469.945 18.1211 472.723 16.2578 476.285 16.2578C477.551 16.2578 478.652 16.3984 479.59 16.6797L479.379 27.6836ZM501.352 55.7031C495.516 55.7031 490.793 53.9688 487.184 50.5C483.574 47.0078 481.77 42.4727 481.77 36.8945V35.9102C481.77 32.0195 482.484 28.5859 483.914 25.6094C485.367 22.6328 487.477 20.3359 490.242 18.7188C493.008 17.0781 496.289 16.2578 500.086 16.2578C505.43 16.2578 509.648 17.9219 512.742 21.25C515.836 24.5547 517.383 29.1719 517.383 35.1016V39.707H493.828C494.25 41.8398 495.176 43.5156 496.605 44.7344C498.035 45.9531 499.887 46.5625 502.16 46.5625C505.91 46.5625 508.84 45.25 510.949 42.625L516.363 49.0234C514.887 51.0625 512.789 52.6914 510.07 53.9102C507.375 55.1055 504.469 55.7031 501.352 55.7031ZM500.016 25.3984C496.547 25.3984 494.484 27.6953 493.828 32.2891H505.781V31.375C505.828 29.4766 505.348 28.0117 504.34 26.9805C503.332 25.9258 501.891 25.3984 500.016 25.3984ZM542.098 44.3125C542.098 43.3047 541.57 42.4961 540.516 41.8867C539.461 41.2773 537.457 40.6445 534.504 39.9883C531.551 39.332 529.113 38.4766 527.191 37.4219C525.27 36.3438 523.805 35.043 522.797 33.5195C521.789 31.9961 521.285 30.25 521.285 28.2812C521.285 24.7891 522.727 21.918 525.609 19.668C528.492 17.3945 532.266 16.2578 536.93 16.2578C541.945 16.2578 545.977 17.3945 549.023 19.668C552.07 21.9414 553.594 24.9297 553.594 28.6328H541.711C541.711 25.5859 540.105 24.0625 536.895 24.0625C535.652 24.0625 534.609 24.4141 533.766 25.1172C532.922 25.7969 532.5 26.6523 532.5 27.6836C532.5 28.7383 533.016 29.5938 534.047 30.25C535.078 30.9062 536.719 31.4453 538.969 31.8672C541.242 32.2891 543.234 32.793 544.945 33.3789C550.664 35.3477 553.523 38.875 553.523 43.9609C553.523 47.4297 551.977 50.2539 548.883 52.4336C545.812 54.6133 541.828 55.7031 536.93 55.7031C533.672 55.7031 530.766 55.1172 528.211 53.9453C525.656 52.7734 523.664 51.1797 522.234 49.1641C520.805 47.1484 520.09 45.0273 520.09 42.8008H531.164C531.211 44.5586 531.797 45.8477 532.922 46.668C534.047 47.4648 535.488 47.8633 537.246 47.8633C538.863 47.8633 540.07 47.5352 540.867 46.8789C541.688 46.2227 542.098 45.3672 542.098 44.3125ZM575.531 35.6289C575.531 31.832 576.27 28.457 577.746 25.5039C579.223 22.5273 581.344 20.2422 584.109 18.6484C586.875 17.0547 590.121 16.2578 593.848 16.2578C599.543 16.2578 604.031 18.0273 607.312 21.5664C610.594 25.082 612.234 29.875 612.234 35.9453V36.3672C612.234 42.2969 610.582 47.0078 607.277 50.5C603.996 53.9688 599.543 55.7031 593.918 55.7031C588.504 55.7031 584.156 54.0859 580.875 50.8516C577.594 47.5938 575.824 43.1875 575.566 37.6328L575.531 35.6289ZM587.379 36.3672C587.379 39.8828 587.93 42.4609 589.031 44.1016C590.133 45.7422 591.762 46.5625 593.918 46.5625C598.137 46.5625 600.293 43.3164 600.387 36.8242V35.6289C600.387 28.8086 598.207 25.3984 593.848 25.3984C589.887 25.3984 587.742 28.3398 587.414 34.2227L587.379 36.3672ZM620.074 55V25.1875H614.555V16.9609H620.074V13.9375C620.074 9.60156 621.352 6.23828 623.906 3.84766C626.461 1.45703 630.047 0.261719 634.664 0.261719C636.352 0.261719 638.203 0.507812 640.219 1L640.254 9.71875C639.527 9.50781 638.555 9.40234 637.336 9.40234C633.75 9.40234 631.957 10.9492 631.957 14.043V16.9609H639.375V25.1875H631.957V55H620.074ZM675.27 7.50391V16.9609H681.527V25.1875H675.27V42.5898C675.27 44.0195 675.527 45.0156 676.043 45.5781C676.559 46.1406 677.578 46.4219 679.102 46.4219C680.273 46.4219 681.258 46.3516 682.055 46.2109V54.6836C679.922 55.3633 677.695 55.7031 675.375 55.7031C671.297 55.7031 668.285 54.7422 666.34 52.8203C664.395 50.8984 663.422 47.9805 663.422 44.0664V25.1875H658.57V16.9609H663.422V7.50391H675.27ZM697.805 21.0391C700.336 17.8516 703.57 16.2578 707.508 16.2578C711.703 16.2578 714.867 17.5 717 19.9844C719.133 22.4688 720.223 26.1367 720.27 30.9883V55H708.387V31.2695C708.387 29.2539 707.977 27.7773 707.156 26.8398C706.336 25.8789 704.941 25.3984 702.973 25.3984C700.535 25.3984 698.812 26.1719 697.805 27.7188V55H685.957V1H697.805V21.0391ZM745.266 55.7031C739.43 55.7031 734.707 53.9688 731.098 50.5C727.488 47.0078 725.684 42.4727 725.684 36.8945V35.9102C725.684 32.0195 726.398 28.5859 727.828 25.6094C729.281 22.6328 731.391 20.3359 734.156 18.7188C736.922 17.0781 740.203 16.2578 744 16.2578C749.344 16.2578 753.562 17.9219 756.656 21.25C759.75 24.5547 761.297 29.1719 761.297 35.1016V39.707H737.742C738.164 41.8398 739.09 43.5156 740.52 44.7344C741.949 45.9531 743.801 46.5625 746.074 46.5625C749.824 46.5625 752.754 45.25 754.863 42.625L760.277 49.0234C758.801 51.0625 756.703 52.6914 753.984 53.9102C751.289 55.1055 748.383 55.7031 745.266 55.7031ZM743.93 25.3984C740.461 25.3984 738.398 27.6953 737.742 32.2891H749.695V31.375C749.742 29.4766 749.262 28.0117 748.254 26.9805C747.246 25.9258 745.805 25.3984 743.93 25.3984ZM784.57 55V3.8125H801.059C805.582 3.8125 809.648 4.84375 813.258 6.90625C816.867 8.94531 819.68 11.8398 821.695 15.5898C823.734 19.3164 824.766 23.5 824.789 28.1406V30.4961C824.789 35.1836 823.793 39.3906 821.801 43.1172C819.832 46.8203 817.043 49.7266 813.434 51.8359C809.848 53.9219 805.84 54.9766 801.41 55H784.57ZM796.91 13.3398V45.5078H801.199C804.738 45.5078 807.457 44.2539 809.355 41.7461C811.254 39.2148 812.203 35.4648 812.203 30.4961V28.2812C812.203 23.3359 811.254 19.6094 809.355 17.1016C807.457 14.5938 804.691 13.3398 801.059 13.3398H796.91ZM852 55C851.578 54.2266 851.203 53.0898 850.875 51.5898C848.695 54.332 845.648 55.7031 841.734 55.7031C838.148 55.7031 835.102 54.625 832.594 52.4688C830.086 50.2891 828.832 47.5586 828.832 44.2773C828.832 40.1523 830.355 37.0352 833.402 34.9258C836.449 32.8164 840.879 31.7617 846.691 31.7617H850.348V29.7578C850.348 26.2656 848.836 24.5195 845.812 24.5195C843 24.5195 841.594 25.9023 841.594 28.668H829.746C829.746 24.9883 831.305 22 834.422 19.7031C837.562 17.4063 841.559 16.2578 846.41 16.2578C851.262 16.2578 855.094 17.4414 857.906 19.8086C860.719 22.1758 862.16 25.4219 862.23 29.5469V46.3867C862.277 49.8789 862.816 52.5508 863.848 54.4023V55H852ZM844.582 47.2656C846.059 47.2656 847.277 46.9492 848.238 46.3164C849.223 45.6836 849.926 44.9688 850.348 44.1719V38.0898H846.902C842.777 38.0898 840.715 39.9414 840.715 43.6445C840.715 44.7227 841.078 45.6016 841.805 46.2812C842.531 46.9375 843.457 47.2656 844.582 47.2656ZM883.465 38.4062L889.793 16.9609H902.484L886.98 61.3633L886.312 62.9805C884.109 67.9023 880.219 70.3633 874.641 70.3633C873.094 70.3633 871.465 70.1289 869.754 69.6602V61.1875H871.301C872.965 61.1875 874.23 60.9414 875.098 60.4492C875.988 59.9805 876.645 59.125 877.066 57.8828L878.016 55.3516L864.797 16.9609H877.453L883.465 38.4062Z" fill="#323030"/>
</svg>
