<svg width="632" height="224" viewBox="0 0 632 224" fill="none" xmlns="http://www.w3.org/2000/svg">
<g filter="url(#filter0_d)">
<g filter="url(#filter1_d)">
<path d="M84.2383 56.3125C84.2383 55.3047 83.7109 54.4961 82.6562 53.8867C81.6016 53.2773 79.5977 52.6445 76.6445 51.9883C73.6914 51.332 71.2539 50.4766 69.332 49.4219C67.4102 48.3438 65.9453 47.043 64.9375 45.5195C63.9297 43.9961 63.4258 42.25 63.4258 40.2812C63.4258 36.7891 64.8672 33.918 67.75 31.668C70.6328 29.3945 74.4062 28.2578 79.0703 28.2578C84.0859 28.2578 88.1172 29.3945 91.1641 31.668C94.2109 33.9414 95.7344 36.9297 95.7344 40.6328H83.8516C83.8516 37.5859 82.2461 36.0625 79.0352 36.0625C77.793 36.0625 76.75 36.4141 75.9062 37.1172C75.0625 37.7969 74.6406 38.6523 74.6406 39.6836C74.6406 40.7383 75.1562 41.5938 76.1875 42.25C77.2188 42.9062 78.8594 43.4453 81.1094 43.8672C83.3828 44.2891 85.375 44.793 87.0859 45.3789C92.8047 47.3477 95.6641 50.875 95.6641 55.9609C95.6641 59.4297 94.1172 62.2539 91.0234 64.4336C87.9531 66.6133 83.9688 67.7031 79.0703 67.7031C75.8125 67.7031 72.9062 67.1172 70.3516 65.9453C67.7969 64.7734 65.8047 63.1797 64.375 61.1641C62.9453 59.1484 62.2305 57.0273 62.2305 54.8008H73.3047C73.3516 56.5586 73.9375 57.8477 75.0625 58.668C76.1875 59.4648 77.6289 59.8633 79.3867 59.8633C81.0039 59.8633 82.2109 59.5352 83.0078 58.8789C83.8281 58.2227 84.2383 57.3672 84.2383 56.3125ZM123.895 62.8867C121.387 66.0977 118 67.7031 113.734 67.7031C109.562 67.7031 106.398 66.4961 104.242 64.082C102.109 61.6445 101.043 58.1523 101.043 53.6055V28.9609H112.891V53.6758C112.891 56.9336 114.473 58.5625 117.637 58.5625C120.355 58.5625 122.289 57.5898 123.438 55.6445V28.9609H135.355V67H124.246L123.895 62.8867ZM177.191 48.2617C177.191 54.168 175.855 58.8906 173.184 62.4297C170.535 65.9453 166.949 67.7031 162.426 67.7031C158.934 67.7031 156.062 66.4258 153.812 63.8711V81.625H141.965V28.9609H153.039L153.391 32.4766C155.664 29.6641 158.652 28.2578 162.355 28.2578C167.043 28.2578 170.688 29.9922 173.289 33.4609C175.891 36.9062 177.191 41.6523 177.191 47.6992V48.2617ZM165.344 47.5234C165.344 40.7734 163.375 37.3984 159.438 37.3984C156.625 37.3984 154.75 38.4062 153.812 40.4219V55.3984C154.844 57.5078 156.742 58.5625 159.508 58.5625C163.281 58.5625 165.227 55.3047 165.344 48.7891V47.5234ZM217.762 48.2617C217.762 54.168 216.426 58.8906 213.754 62.4297C211.105 65.9453 207.52 67.7031 202.996 67.7031C199.504 67.7031 196.633 66.4258 194.383 63.8711V81.625H182.535V28.9609H193.609L193.961 32.4766C196.234 29.6641 199.223 28.2578 202.926 28.2578C207.613 28.2578 211.258 29.9922 213.859 33.4609C216.461 36.9062 217.762 41.6523 217.762 47.6992V48.2617ZM205.914 47.5234C205.914 40.7734 203.945 37.3984 200.008 37.3984C197.195 37.3984 195.32 38.4062 194.383 40.4219V55.3984C195.414 57.5078 197.312 58.5625 200.078 58.5625C203.852 58.5625 205.797 55.3047 205.914 48.7891V47.5234ZM221.523 47.6289C221.523 43.832 222.262 40.457 223.738 37.5039C225.215 34.5273 227.336 32.2422 230.102 30.6484C232.867 29.0547 236.113 28.2578 239.84 28.2578C245.535 28.2578 250.023 30.0273 253.305 33.5664C256.586 37.082 258.227 41.875 258.227 47.9453V48.3672C258.227 54.2969 256.574 59.0078 253.27 62.5C249.988 65.9688 245.535 67.7031 239.91 67.7031C234.496 67.7031 230.148 66.0859 226.867 62.8516C223.586 59.5938 221.816 55.1875 221.559 49.6328L221.523 47.6289ZM233.371 48.3672C233.371 51.8828 233.922 54.4609 235.023 56.1016C236.125 57.7422 237.754 58.5625 239.91 58.5625C244.129 58.5625 246.285 55.3164 246.379 48.8242V47.6289C246.379 40.8086 244.199 37.3984 239.84 37.3984C235.879 37.3984 233.734 40.3398 233.406 46.2227L233.371 48.3672ZM286.457 39.6836L282.555 39.4023C278.828 39.4023 276.438 40.5742 275.383 42.918V67H263.535V28.9609H274.645L275.031 33.8477C277.023 30.1211 279.801 28.2578 283.363 28.2578C284.629 28.2578 285.73 28.3984 286.668 28.6797L286.457 39.6836ZM306.285 19.5039V28.9609H312.543V37.1875H306.285V54.5898C306.285 56.0195 306.543 57.0156 307.059 57.5781C307.574 58.1406 308.594 58.4219 310.117 58.4219C311.289 58.4219 312.273 58.3516 313.07 58.2109V66.6836C310.938 67.3633 308.711 67.7031 306.391 67.7031C302.312 67.7031 299.301 66.7422 297.355 64.8203C295.41 62.8984 294.438 59.9805 294.438 56.0664V37.1875H289.586V28.9609H294.438V19.5039H306.285ZM333.672 47.6289C333.672 43.832 334.41 40.457 335.887 37.5039C337.363 34.5273 339.484 32.2422 342.25 30.6484C345.016 29.0547 348.262 28.2578 351.988 28.2578C357.684 28.2578 362.172 30.0273 365.453 33.5664C368.734 37.082 370.375 41.875 370.375 47.9453V48.3672C370.375 54.2969 368.723 59.0078 365.418 62.5C362.137 65.9688 357.684 67.7031 352.059 67.7031C346.645 67.7031 342.297 66.0859 339.016 62.8516C335.734 59.5938 333.965 55.1875 333.707 49.6328L333.672 47.6289ZM345.52 48.3672C345.52 51.8828 346.07 54.4609 347.172 56.1016C348.273 57.7422 349.902 58.5625 352.059 58.5625C356.277 58.5625 358.434 55.3164 358.527 48.8242V47.6289C358.527 40.8086 356.348 37.3984 351.988 37.3984C348.027 37.3984 345.883 40.3398 345.555 46.2227L345.52 48.3672ZM398.254 62.8867C395.746 66.0977 392.359 67.7031 388.094 67.7031C383.922 67.7031 380.758 66.4961 378.602 64.082C376.469 61.6445 375.402 58.1523 375.402 53.6055V28.9609H387.25V53.6758C387.25 56.9336 388.832 58.5625 391.996 58.5625C394.715 58.5625 396.648 57.5898 397.797 55.6445V28.9609H409.715V67H398.605L398.254 62.8867ZM439.246 39.6836L435.344 39.4023C431.617 39.4023 429.227 40.5742 428.172 42.918V67H416.324V28.9609H427.434L427.82 33.8477C429.812 30.1211 432.59 28.2578 436.152 28.2578C437.418 28.2578 438.52 28.3984 439.457 28.6797L439.246 39.6836Z" fill="white"/>
</g>
<g filter="url(#filter2_d)">
<path d="M13.8828 151V91.375H2.84375V74.9219H13.8828V68.875C13.8828 60.2031 16.4375 53.4766 21.5469 48.6953C26.6562 43.9141 33.8281 41.5234 43.0625 41.5234C46.4375 41.5234 50.1406 42.0156 54.1719 43L54.2422 60.4375C52.7891 60.0156 50.8438 59.8047 48.4062 59.8047C41.2344 59.8047 37.6484 62.8984 37.6484 69.0859V74.9219H52.4844V91.375H37.6484V151H13.8828ZM103.672 151C102.828 149.453 102.078 147.18 101.422 144.18C97.0625 149.664 90.9688 152.406 83.1406 152.406C75.9688 152.406 69.875 150.25 64.8594 145.938C59.8438 141.578 57.3359 136.117 57.3359 129.555C57.3359 121.305 60.3828 115.07 66.4766 110.852C72.5703 106.633 81.4297 104.523 93.0547 104.523H100.367V100.516C100.367 93.5312 97.3438 90.0391 91.2969 90.0391C85.6719 90.0391 82.8594 92.8047 82.8594 98.3359H59.1641C59.1641 90.9766 62.2812 85 68.5156 80.4062C74.7969 75.8125 82.7891 73.5156 92.4922 73.5156C102.195 73.5156 109.859 75.8828 115.484 80.6172C121.109 85.3516 123.992 91.8438 124.133 100.094V133.773C124.227 140.758 125.305 146.102 127.367 149.805V151H103.672ZM88.8359 135.531C91.7891 135.531 94.2266 134.898 96.1484 133.633C98.1172 132.367 99.5234 130.938 100.367 129.344V117.18H93.4766C85.2266 117.18 81.1016 120.883 81.1016 128.289C81.1016 130.445 81.8281 132.203 83.2812 133.562C84.7344 134.875 86.5859 135.531 88.8359 135.531ZM183.336 96.3672L175.531 95.8047C168.078 95.8047 163.297 98.1484 161.188 102.836V151H137.492V74.9219H159.711L160.484 84.6953C164.469 77.2422 170.023 73.5156 177.148 73.5156C179.68 73.5156 181.883 73.7969 183.758 74.3594L183.336 96.3672ZM214.273 74.9219L215.047 83.8516C220.438 76.9609 227.68 73.5156 236.773 73.5156C246.383 73.5156 252.875 77.3359 256.25 84.9766C261.406 77.3359 268.859 73.5156 278.609 73.5156C294.031 73.5156 301.953 82.8438 302.375 101.5V151H278.609V102.977C278.609 99.0859 277.953 96.25 276.641 94.4688C275.328 92.6875 272.938 91.7969 269.469 91.7969C264.781 91.7969 261.289 93.8828 258.992 98.0547L259.062 99.0391V151H235.297V103.117C235.297 99.1328 234.664 96.25 233.398 94.4688C232.133 92.6875 229.719 91.7969 226.156 91.7969C221.609 91.7969 218.141 93.8828 215.75 98.0547V151H192.055V74.9219H214.273ZM352.719 152.406C341.047 152.406 331.602 148.938 324.383 142C317.164 135.016 313.555 125.945 313.555 114.789V112.82C313.555 105.039 314.984 98.1719 317.844 92.2188C320.75 86.2656 324.969 81.6719 330.5 78.4375C336.031 75.1562 342.594 73.5156 350.188 73.5156C360.875 73.5156 369.312 76.8438 375.5 83.5C381.688 90.1094 384.781 99.3438 384.781 111.203V120.414H337.672C338.516 124.68 340.367 128.031 343.227 130.469C346.086 132.906 349.789 134.125 354.336 134.125C361.836 134.125 367.695 131.5 371.914 126.25L382.742 139.047C379.789 143.125 375.594 146.383 370.156 148.82C364.766 151.211 358.953 152.406 352.719 152.406ZM350.047 91.7969C343.109 91.7969 338.984 96.3906 337.672 105.578H361.578V103.75C361.672 99.9531 360.711 97.0234 358.695 94.9609C356.68 92.8516 353.797 91.7969 350.047 91.7969ZM440.398 96.3672L432.594 95.8047C425.141 95.8047 420.359 98.1484 418.25 102.836V151H394.555V74.9219H416.773L417.547 84.6953C421.531 77.2422 427.086 73.5156 434.211 73.5156C436.742 73.5156 438.945 73.7969 440.82 74.3594L440.398 96.3672ZM488.773 129.625C488.773 127.609 487.719 125.992 485.609 124.773C483.5 123.555 479.492 122.289 473.586 120.977C467.68 119.664 462.805 117.953 458.961 115.844C455.117 113.688 452.188 111.086 450.172 108.039C448.156 104.992 447.148 101.5 447.148 97.5625C447.148 90.5781 450.031 84.8359 455.797 80.3359C461.562 75.7891 469.109 73.5156 478.438 73.5156C488.469 73.5156 496.531 75.7891 502.625 80.3359C508.719 84.8828 511.766 90.8594 511.766 98.2656H488C488 92.1719 484.789 89.125 478.367 89.125C475.883 89.125 473.797 89.8281 472.109 91.2344C470.422 92.5938 469.578 94.3047 469.578 96.3672C469.578 98.4766 470.609 100.188 472.672 101.5C474.734 102.812 478.016 103.891 482.516 104.734C487.062 105.578 491.047 106.586 494.469 107.758C505.906 111.695 511.625 118.75 511.625 128.922C511.625 135.859 508.531 141.508 502.344 145.867C496.203 150.227 488.234 152.406 478.438 152.406C471.922 152.406 466.109 151.234 461 148.891C455.891 146.547 451.906 143.359 449.047 139.328C446.188 135.297 444.758 131.055 444.758 126.602H466.906C467 130.117 468.172 132.695 470.422 134.336C472.672 135.93 475.555 136.727 479.07 136.727C482.305 136.727 484.719 136.07 486.312 134.758C487.953 133.445 488.773 131.734 488.773 129.625ZM537.43 128.008C541.18 128.008 544.297 129.133 546.781 131.383C549.266 133.586 550.508 136.422 550.508 139.891C550.508 143.359 549.266 146.219 546.781 148.469C544.297 150.672 541.18 151.773 537.43 151.773C533.633 151.773 530.492 150.648 528.008 148.398C525.57 146.148 524.352 143.312 524.352 139.891C524.352 136.469 525.57 133.633 528.008 131.383C530.492 129.133 533.633 128.008 537.43 128.008Z" fill="white"/>
</g>
</g>
<g filter="url(#filter3_d)">
<g filter="url(#filter4_d)">
<path d="M84.2383 56.3125C84.2383 55.3047 83.7109 54.4961 82.6562 53.8867C81.6016 53.2773 79.5977 52.6445 76.6445 51.9883C73.6914 51.332 71.2539 50.4766 69.332 49.4219C67.4102 48.3438 65.9453 47.043 64.9375 45.5195C63.9297 43.9961 63.4258 42.25 63.4258 40.2812C63.4258 36.7891 64.8672 33.918 67.75 31.668C70.6328 29.3945 74.4062 28.2578 79.0703 28.2578C84.0859 28.2578 88.1172 29.3945 91.1641 31.668C94.2109 33.9414 95.7344 36.9297 95.7344 40.6328H83.8516C83.8516 37.5859 82.2461 36.0625 79.0352 36.0625C77.793 36.0625 76.75 36.4141 75.9062 37.1172C75.0625 37.7969 74.6406 38.6523 74.6406 39.6836C74.6406 40.7383 75.1562 41.5938 76.1875 42.25C77.2188 42.9062 78.8594 43.4453 81.1094 43.8672C83.3828 44.2891 85.375 44.793 87.0859 45.3789C92.8047 47.3477 95.6641 50.875 95.6641 55.9609C95.6641 59.4297 94.1172 62.2539 91.0234 64.4336C87.9531 66.6133 83.9688 67.7031 79.0703 67.7031C75.8125 67.7031 72.9062 67.1172 70.3516 65.9453C67.7969 64.7734 65.8047 63.1797 64.375 61.1641C62.9453 59.1484 62.2305 57.0273 62.2305 54.8008H73.3047C73.3516 56.5586 73.9375 57.8477 75.0625 58.668C76.1875 59.4648 77.6289 59.8633 79.3867 59.8633C81.0039 59.8633 82.2109 59.5352 83.0078 58.8789C83.8281 58.2227 84.2383 57.3672 84.2383 56.3125ZM123.895 62.8867C121.387 66.0977 118 67.7031 113.734 67.7031C109.562 67.7031 106.398 66.4961 104.242 64.082C102.109 61.6445 101.043 58.1523 101.043 53.6055V28.9609H112.891V53.6758C112.891 56.9336 114.473 58.5625 117.637 58.5625C120.355 58.5625 122.289 57.5898 123.438 55.6445V28.9609H135.355V67H124.246L123.895 62.8867ZM177.191 48.2617C177.191 54.168 175.855 58.8906 173.184 62.4297C170.535 65.9453 166.949 67.7031 162.426 67.7031C158.934 67.7031 156.062 66.4258 153.812 63.8711V81.625H141.965V28.9609H153.039L153.391 32.4766C155.664 29.6641 158.652 28.2578 162.355 28.2578C167.043 28.2578 170.688 29.9922 173.289 33.4609C175.891 36.9062 177.191 41.6523 177.191 47.6992V48.2617ZM165.344 47.5234C165.344 40.7734 163.375 37.3984 159.438 37.3984C156.625 37.3984 154.75 38.4062 153.812 40.4219V55.3984C154.844 57.5078 156.742 58.5625 159.508 58.5625C163.281 58.5625 165.227 55.3047 165.344 48.7891V47.5234ZM217.762 48.2617C217.762 54.168 216.426 58.8906 213.754 62.4297C211.105 65.9453 207.52 67.7031 202.996 67.7031C199.504 67.7031 196.633 66.4258 194.383 63.8711V81.625H182.535V28.9609H193.609L193.961 32.4766C196.234 29.6641 199.223 28.2578 202.926 28.2578C207.613 28.2578 211.258 29.9922 213.859 33.4609C216.461 36.9062 217.762 41.6523 217.762 47.6992V48.2617ZM205.914 47.5234C205.914 40.7734 203.945 37.3984 200.008 37.3984C197.195 37.3984 195.32 38.4062 194.383 40.4219V55.3984C195.414 57.5078 197.312 58.5625 200.078 58.5625C203.852 58.5625 205.797 55.3047 205.914 48.7891V47.5234ZM221.523 47.6289C221.523 43.832 222.262 40.457 223.738 37.5039C225.215 34.5273 227.336 32.2422 230.102 30.6484C232.867 29.0547 236.113 28.2578 239.84 28.2578C245.535 28.2578 250.023 30.0273 253.305 33.5664C256.586 37.082 258.227 41.875 258.227 47.9453V48.3672C258.227 54.2969 256.574 59.0078 253.27 62.5C249.988 65.9688 245.535 67.7031 239.91 67.7031C234.496 67.7031 230.148 66.0859 226.867 62.8516C223.586 59.5938 221.816 55.1875 221.559 49.6328L221.523 47.6289ZM233.371 48.3672C233.371 51.8828 233.922 54.4609 235.023 56.1016C236.125 57.7422 237.754 58.5625 239.91 58.5625C244.129 58.5625 246.285 55.3164 246.379 48.8242V47.6289C246.379 40.8086 244.199 37.3984 239.84 37.3984C235.879 37.3984 233.734 40.3398 233.406 46.2227L233.371 48.3672ZM286.457 39.6836L282.555 39.4023C278.828 39.4023 276.438 40.5742 275.383 42.918V67H263.535V28.9609H274.645L275.031 33.8477C277.023 30.1211 279.801 28.2578 283.363 28.2578C284.629 28.2578 285.73 28.3984 286.668 28.6797L286.457 39.6836ZM306.285 19.5039V28.9609H312.543V37.1875H306.285V54.5898C306.285 56.0195 306.543 57.0156 307.059 57.5781C307.574 58.1406 308.594 58.4219 310.117 58.4219C311.289 58.4219 312.273 58.3516 313.07 58.2109V66.6836C310.938 67.3633 308.711 67.7031 306.391 67.7031C302.312 67.7031 299.301 66.7422 297.355 64.8203C295.41 62.8984 294.438 59.9805 294.438 56.0664V37.1875H289.586V28.9609H294.438V19.5039H306.285ZM333.672 47.6289C333.672 43.832 334.41 40.457 335.887 37.5039C337.363 34.5273 339.484 32.2422 342.25 30.6484C345.016 29.0547 348.262 28.2578 351.988 28.2578C357.684 28.2578 362.172 30.0273 365.453 33.5664C368.734 37.082 370.375 41.875 370.375 47.9453V48.3672C370.375 54.2969 368.723 59.0078 365.418 62.5C362.137 65.9688 357.684 67.7031 352.059 67.7031C346.645 67.7031 342.297 66.0859 339.016 62.8516C335.734 59.5938 333.965 55.1875 333.707 49.6328L333.672 47.6289ZM345.52 48.3672C345.52 51.8828 346.07 54.4609 347.172 56.1016C348.273 57.7422 349.902 58.5625 352.059 58.5625C356.277 58.5625 358.434 55.3164 358.527 48.8242V47.6289C358.527 40.8086 356.348 37.3984 351.988 37.3984C348.027 37.3984 345.883 40.3398 345.555 46.2227L345.52 48.3672ZM398.254 62.8867C395.746 66.0977 392.359 67.7031 388.094 67.7031C383.922 67.7031 380.758 66.4961 378.602 64.082C376.469 61.6445 375.402 58.1523 375.402 53.6055V28.9609H387.25V53.6758C387.25 56.9336 388.832 58.5625 391.996 58.5625C394.715 58.5625 396.648 57.5898 397.797 55.6445V28.9609H409.715V67H398.605L398.254 62.8867ZM439.246 39.6836L435.344 39.4023C431.617 39.4023 429.227 40.5742 428.172 42.918V67H416.324V28.9609H427.434L427.82 33.8477C429.812 30.1211 432.59 28.2578 436.152 28.2578C437.418 28.2578 438.52 28.3984 439.457 28.6797L439.246 39.6836Z" fill="white"/>
</g>
<g filter="url(#filter5_d)">
<path d="M13.8828 151V91.375H2.84375V74.9219H13.8828V68.875C13.8828 60.2031 16.4375 53.4766 21.5469 48.6953C26.6562 43.9141 33.8281 41.5234 43.0625 41.5234C46.4375 41.5234 50.1406 42.0156 54.1719 43L54.2422 60.4375C52.7891 60.0156 50.8438 59.8047 48.4062 59.8047C41.2344 59.8047 37.6484 62.8984 37.6484 69.0859V74.9219H52.4844V91.375H37.6484V151H13.8828ZM103.672 151C102.828 149.453 102.078 147.18 101.422 144.18C97.0625 149.664 90.9688 152.406 83.1406 152.406C75.9688 152.406 69.875 150.25 64.8594 145.938C59.8438 141.578 57.3359 136.117 57.3359 129.555C57.3359 121.305 60.3828 115.07 66.4766 110.852C72.5703 106.633 81.4297 104.523 93.0547 104.523H100.367V100.516C100.367 93.5312 97.3438 90.0391 91.2969 90.0391C85.6719 90.0391 82.8594 92.8047 82.8594 98.3359H59.1641C59.1641 90.9766 62.2812 85 68.5156 80.4062C74.7969 75.8125 82.7891 73.5156 92.4922 73.5156C102.195 73.5156 109.859 75.8828 115.484 80.6172C121.109 85.3516 123.992 91.8438 124.133 100.094V133.773C124.227 140.758 125.305 146.102 127.367 149.805V151H103.672ZM88.8359 135.531C91.7891 135.531 94.2266 134.898 96.1484 133.633C98.1172 132.367 99.5234 130.938 100.367 129.344V117.18H93.4766C85.2266 117.18 81.1016 120.883 81.1016 128.289C81.1016 130.445 81.8281 132.203 83.2812 133.562C84.7344 134.875 86.5859 135.531 88.8359 135.531ZM183.336 96.3672L175.531 95.8047C168.078 95.8047 163.297 98.1484 161.188 102.836V151H137.492V74.9219H159.711L160.484 84.6953C164.469 77.2422 170.023 73.5156 177.148 73.5156C179.68 73.5156 181.883 73.7969 183.758 74.3594L183.336 96.3672ZM214.273 74.9219L215.047 83.8516C220.438 76.9609 227.68 73.5156 236.773 73.5156C246.383 73.5156 252.875 77.3359 256.25 84.9766C261.406 77.3359 268.859 73.5156 278.609 73.5156C294.031 73.5156 301.953 82.8438 302.375 101.5V151H278.609V102.977C278.609 99.0859 277.953 96.25 276.641 94.4688C275.328 92.6875 272.938 91.7969 269.469 91.7969C264.781 91.7969 261.289 93.8828 258.992 98.0547L259.062 99.0391V151H235.297V103.117C235.297 99.1328 234.664 96.25 233.398 94.4688C232.133 92.6875 229.719 91.7969 226.156 91.7969C221.609 91.7969 218.141 93.8828 215.75 98.0547V151H192.055V74.9219H214.273ZM352.719 152.406C341.047 152.406 331.602 148.938 324.383 142C317.164 135.016 313.555 125.945 313.555 114.789V112.82C313.555 105.039 314.984 98.1719 317.844 92.2188C320.75 86.2656 324.969 81.6719 330.5 78.4375C336.031 75.1562 342.594 73.5156 350.188 73.5156C360.875 73.5156 369.312 76.8438 375.5 83.5C381.688 90.1094 384.781 99.3438 384.781 111.203V120.414H337.672C338.516 124.68 340.367 128.031 343.227 130.469C346.086 132.906 349.789 134.125 354.336 134.125C361.836 134.125 367.695 131.5 371.914 126.25L382.742 139.047C379.789 143.125 375.594 146.383 370.156 148.82C364.766 151.211 358.953 152.406 352.719 152.406ZM350.047 91.7969C343.109 91.7969 338.984 96.3906 337.672 105.578H361.578V103.75C361.672 99.9531 360.711 97.0234 358.695 94.9609C356.68 92.8516 353.797 91.7969 350.047 91.7969ZM440.398 96.3672L432.594 95.8047C425.141 95.8047 420.359 98.1484 418.25 102.836V151H394.555V74.9219H416.773L417.547 84.6953C421.531 77.2422 427.086 73.5156 434.211 73.5156C436.742 73.5156 438.945 73.7969 440.82 74.3594L440.398 96.3672ZM488.773 129.625C488.773 127.609 487.719 125.992 485.609 124.773C483.5 123.555 479.492 122.289 473.586 120.977C467.68 119.664 462.805 117.953 458.961 115.844C455.117 113.688 452.188 111.086 450.172 108.039C448.156 104.992 447.148 101.5 447.148 97.5625C447.148 90.5781 450.031 84.8359 455.797 80.3359C461.562 75.7891 469.109 73.5156 478.438 73.5156C488.469 73.5156 496.531 75.7891 502.625 80.3359C508.719 84.8828 511.766 90.8594 511.766 98.2656H488C488 92.1719 484.789 89.125 478.367 89.125C475.883 89.125 473.797 89.8281 472.109 91.2344C470.422 92.5938 469.578 94.3047 469.578 96.3672C469.578 98.4766 470.609 100.188 472.672 101.5C474.734 102.812 478.016 103.891 482.516 104.734C487.062 105.578 491.047 106.586 494.469 107.758C505.906 111.695 511.625 118.75 511.625 128.922C511.625 135.859 508.531 141.508 502.344 145.867C496.203 150.227 488.234 152.406 478.438 152.406C471.922 152.406 466.109 151.234 461 148.891C455.891 146.547 451.906 143.359 449.047 139.328C446.188 135.297 444.758 131.055 444.758 126.602H466.906C467 130.117 468.172 132.695 470.422 134.336C472.672 135.93 475.555 136.727 479.07 136.727C482.305 136.727 484.719 136.07 486.312 134.758C487.953 133.445 488.773 131.734 488.773 129.625ZM537.43 128.008C541.18 128.008 544.297 129.133 546.781 131.383C549.266 133.586 550.508 136.422 550.508 139.891C550.508 143.359 549.266 146.219 546.781 148.469C544.297 150.672 541.18 151.773 537.43 151.773C533.633 151.773 530.492 150.648 528.008 148.398C525.57 146.148 524.352 143.312 524.352 139.891C524.352 136.469 525.57 133.633 528.008 131.383C530.492 129.133 533.633 128.008 537.43 128.008Z" fill="white"/>
</g>
</g>
<defs>
<filter id="filter0_d" x="2.84375" y="19.5039" width="563.664" height="149.902" filterUnits="userSpaceOnUse" color-interpolation-filters="sRGB">
<feFlood flood-opacity="0" result="BackgroundImageFix"/>
<feColorMatrix in="SourceAlpha" type="matrix" values="0 0 0 0 0 0 0 0 0 0 0 0 0 0 0 0 0 0 127 0"/>
<feOffset dx="8" dy="9"/>
<feGaussianBlur stdDeviation="4"/>
<feColorMatrix type="matrix" values="0 0 0 0 0 0 0 0 0 0 0 0 0 0 0 0 0 0 0.25 0"/>
<feBlend mode="normal" in2="BackgroundImageFix" result="effect1_dropShadow"/>
<feBlend mode="normal" in="SourceGraphic" in2="effect1_dropShadow" result="shape"/>
</filter>
<filter id="filter1_d" x="60.2305" y="19.5039" width="391.227" height="79.1211" filterUnits="userSpaceOnUse" color-interpolation-filters="sRGB">
<feFlood flood-opacity="0" result="BackgroundImageFix"/>
<feColorMatrix in="SourceAlpha" type="matrix" values="0 0 0 0 0 0 0 0 0 0 0 0 0 0 0 0 0 0 127 0"/>
<feOffset dx="5" dy="10"/>
<feGaussianBlur stdDeviation="3.5"/>
<feColorMatrix type="matrix" values="0 0 0 0 0 0 0 0 0 0 0 0 0 0 0 0 0 0 0.25 0"/>
<feBlend mode="normal" in2="BackgroundImageFix" result="effect1_dropShadow"/>
<feBlend mode="normal" in="SourceGraphic" in2="effect1_dropShadow" result="shape"/>
</filter>
<filter id="filter2_d" x="0.84375" y="41.5234" width="561.664" height="127.883" filterUnits="userSpaceOnUse" color-interpolation-filters="sRGB">
<feFlood flood-opacity="0" result="BackgroundImageFix"/>
<feColorMatrix in="SourceAlpha" type="matrix" values="0 0 0 0 0 0 0 0 0 0 0 0 0 0 0 0 0 0 127 0"/>
<feOffset dx="5" dy="10"/>
<feGaussianBlur stdDeviation="3.5"/>
<feColorMatrix type="matrix" values="0 0 0 0 0 0 0 0 0 0 0 0 0 0 0 0 0 0 0.25 0"/>
<feBlend mode="normal" in2="BackgroundImageFix" result="effect1_dropShadow"/>
<feBlend mode="normal" in="SourceGraphic" in2="effect1_dropShadow" result="shape"/>
</filter>
<filter id="filter3_d" x="2.84375" y="19.5039" width="563.664" height="149.902" filterUnits="userSpaceOnUse" color-interpolation-filters="sRGB">
<feFlood flood-opacity="0" result="BackgroundImageFix"/>
<feColorMatrix in="SourceAlpha" type="matrix" values="0 0 0 0 0 0 0 0 0 0 0 0 0 0 0 0 0 0 127 0"/>
<feOffset dx="8" dy="9"/>
<feGaussianBlur stdDeviation="4"/>
<feColorMatrix type="matrix" values="0 0 0 0 0 0 0 0 0 0 0 0 0 0 0 0 0 0 0.25 0"/>
<feBlend mode="normal" in2="BackgroundImageFix" result="effect1_dropShadow"/>
<feBlend mode="normal" in="SourceGraphic" in2="effect1_dropShadow" result="shape"/>
</filter>
<filter id="filter4_d" x="60.2305" y="19.5039" width="391.227" height="79.1211" filterUnits="userSpaceOnUse" color-interpolation-filters="sRGB">
<feFlood flood-opacity="0" result="BackgroundImageFix"/>
<feColorMatrix in="SourceAlpha" type="matrix" values="0 0 0 0 0 0 0 0 0 0 0 0 0 0 0 0 0 0 127 0"/>
<feOffset dx="5" dy="10"/>
<feGaussianBlur stdDeviation="3.5"/>
<feColorMatrix type="matrix" values="0 0 0 0 0 0 0 0 0 0 0 0 0 0 0 0 0 0 0.25 0"/>
<feBlend mode="normal" in2="BackgroundImageFix" result="effect1_dropShadow"/>
<feBlend mode="normal" in="SourceGraphic" in2="effect1_dropShadow" result="shape"/>
</filter>
<filter id="filter5_d" x="0.84375" y="41.5234" width="561.664" height="127.883" filterUnits="userSpaceOnUse" color-interpolation-filters="sRGB">
<feFlood flood-opacity="0" result="BackgroundImageFix"/>
<feColorMatrix in="SourceAlpha" type="matrix" values="0 0 0 0 0 0 0 0 0 0 0 0 0 0 0 0 0 0 127 0"/>
<feOffset dx="5" dy="10"/>
<feGaussianBlur stdDeviation="3.5"/>
<feColorMatrix type="matrix" values="0 0 0 0 0 0 0 0 0 0 0 0 0 0 0 0 0 0 0.25 0"/>
<feBlend mode="normal" in2="BackgroundImageFix" result="effect1_dropShadow"/>
<feBlend mode="normal" in="SourceGraphic" in2="effect1_dropShadow" result="shape"/>
</filter>
</defs>
</svg>
